<?xml version="1.0" encoding="UTF-8"?>
<svg id="Layer_1" xmlns="http://www.w3.org/2000/svg" version="1.1" viewBox="0 0 31.7 31.8">
  <!-- Generator: Adobe Illustrator 29.4.0, SVG Export Plug-In . SVG Version: 2.1.0 Build 152)  -->
  <defs>
    <style>
      .st0 {
        fill: #a0abb8;
      }
    </style>
  </defs>
  <path class="st0" d="M7.9,3.5c.2-1.4,1.4-2.4,2.8-2.5,3.3.1,6.9-.3,10.1,0s3,1.3,3,2.9v3h4.2c1.5,0,3.3,1.6,3.6,3.1,0,5.3.5,11.2.1,16.5s-1.6,3.9-4,4.1c-7.7-.4-15.9.5-23.6,0S.2,29.3,0,26.9c-.4-5.3.3-11.1,0-16.4.1-1.8,1.9-3.5,3.7-3.5h4.2c.1-1.1-.1-2.4,0-3.4ZM21.8,6.9v-3.1c0-.4-.6-.9-1-.8-3.1.3-6.8-.3-9.9,0s-.9.3-.9.6v3.3h11.9ZM29.8,16.8v-6.3c0-.7-1.1-1.7-1.8-1.6H3.7c-.6,0-1.7.9-1.7,1.4v6.5h27.8ZM10.9,18.8H2v8.5c0,.6,1.1,1.5,1.7,1.4,8.2,0,16.5.1,24.7,0,.6-.1,1.3-1,1.3-1.5v-8.3h-8.9v3s-.1.6-.1.6c-.3.8-1,1.2-1.8,1.3-1.4.1-5,.2-6.3,0s-1-.4-1.3-.8-.3-.6-.3-.7v-3.4ZM12.9,18.8v3h6v-3h-6Z"/>
</svg>