<?xml version="1.0" encoding="UTF-8"?>
<svg id="Layer_1" xmlns="http://www.w3.org/2000/svg" version="1.1" viewBox="0 0 31.7 31.8">
  <!-- Generator: Adobe Illustrator 29.4.0, SVG Export Plug-In . SVG Version: 2.1.0 Build 152)  -->
  <defs>
    <style>
      .st0 {
        fill: #a0abb8;
      }
    </style>
  </defs>
  <path class="st0" d="M15.6,0c.1,0,.3,0,.4,0,5,1.8,9.8,4.3,14.8,6.4,1,.5,1.3,1.7.6,2.6s-1.2.8-1.7,1c-3.8,1.8-8.1,3.8-11.9,5.3s-2.1.6-3.6,0c-4.5-1.7-8.9-4.2-13.4-6-1-.7-1-2.2,0-2.9C5.1,4.7,9.3,2.5,13.6.7S15,0,15.6,0ZM29.5,7.9L15.9,1.9C11.3,3.7,6.9,6,2.3,7.9c-.1.2,1.5.9,1.6.9,3.5,1.6,7.4,3.5,10.9,4.9s1.4.3,2.5-.2c3.2-1.3,6.5-2.9,9.7-4.3s1.7-.7,2.2-1,.3-.2.2-.3Z"/>
  <path class="st0" d="M6,14.2c-.3.1-3.9,1.6-3.8,1.8l13.5,5.9.7-.2,13-5.7c0,0-.2-.3-.3-.3-.4-.2-3.4-1.4-3.4-1.6.6-.4,1.8-1.1,2.5-.9s2.9,1.2,3.1,1.5c.8,1,.3,2.4-.8,2.8-4.4,1.6-9,4.5-13.4,6s-2,.1-3.4-.4c-4.4-1.8-8.7-4-13.1-5.9-.8-.8-.8-2.1.2-2.8s2.7-1.3,3.1-1.3,2.4.8,2.2,1Z"/>
  <path class="st0" d="M6,22c0,.3,0,.2-.1.3-.5.3-3.5,1.4-3.6,1.6l.2.2c4.1,1.7,8.2,4,12.4,5.6s1.4.3,2.5-.2c4-1.7,7.9-3.7,11.9-5.4l.2-.2-3.8-1.6c0-.3,0-.2.1-.3.6-.3,1.8-.9,2.4-.7s2.7,1.1,3,1.4c.9.8.7,2.4-.4,2.9-4.4,1.8-8.7,4.1-13.1,5.9s-2.6.4-4.4-.4c-3.5-1.5-7.2-3.1-10.7-4.8s-1.8-.8-2.1-1.2c-.7-.8-.5-2.1.4-2.6s2.7-1.2,3-1.2c.6,0,1.5.8,2.2.8Z"/>
</svg>