<svg width="2334" height="533" viewBox="0 0 2334 533" fill="none" xmlns="http://www.w3.org/2000/svg">
<g clip-path="url(#clip0_500_3834)">
<path d="M2004.9 405.6C1992.8 400.1 1982.7 397.1 1972.1 388.4C1893 323.6 1956.1 148.4 2068.6 214.8L2083.5 228.6V127H2122.8V402.3H2086.8L2085.2 376.9C2081.8 373.6 2081.7 378.8 2079.6 381C2067.1 394.1 2057.3 400.9 2039.4 405.5H2005L2004.9 405.6ZM2027.5 232.3C1968.5 238.6 1966.2 352 2013.6 371.4C2099.7 406.5 2110.3 223.4 2027.5 232.3Z" fill="white"/>
<path d="M1556.1 405.6C1538.6 399.5 1522.5 394.6 1513.7 376.7C1506.1 361.3 1505.9 334.4 1515.4 319.8C1532.9 293.1 1574.4 292.3 1602.3 287.1C1616.5 284.4 1636.5 283.7 1636.5 265.4C1636.5 217.1 1554.3 222.7 1556.1 269.5H1517.6C1512.3 269.5 1519.9 247.4 1521.4 243.8C1538.7 202.3 1594.6 193.8 1633.4 206C1700 227 1670.6 312.8 1677.6 365C1680.3 374.2 1689.1 373.7 1696.9 371.1C1695.5 379.5 1698.8 393.6 1696.9 401.1C1696.3 403.7 1689.2 403.7 1687 403.8C1681.5 404.1 1672.6 404.5 1667.3 403.8C1649.5 401.6 1644.6 387.7 1640.3 372.6C1630.4 390.6 1612.7 399.8 1593.6 405.4H1555.9L1556.1 405.6ZM1636.4 307.2C1618.4 313.8 1598.7 314.2 1580.4 319.2C1570 322 1554.1 327.7 1551.6 339.6C1542 386.6 1612.6 390.3 1630.2 351C1631.7 347.6 1636.4 333.8 1636.4 331V307.2Z" fill="white"/>
<path d="M946.8 403.9C910.1 399.2 890.9 365.3 902.1 330.5C915 290.7 969.5 292.7 1002.8 285.4C1023.9 280.8 1033.4 275.6 1025.5 252.2C1015.7 223.3 962.5 226.4 950.8 253.1C939.1 279.8 948.2 264.1 946.7 269.5H907.4C909.5 209.9 971.5 191.6 1021.7 205.1C1092.2 224.1 1060.5 310.3 1068.6 363C1072 377.4 1087.6 371.1 1089.2 372.7C1090.1 373.6 1089.5 397.7 1088.9 399.5C1087.7 403.2 1082.6 403.5 1079.3 403.9C1074.2 404.4 1064.8 404.5 1059.6 403.9C1042.6 402 1034.5 388.4 1032.6 372.8C1020.2 390.7 1003.8 400.8 982.6 405.6H956.4C954.6 402.6 949.6 404.3 946.6 404L946.8 403.9ZM1028.7 307.2C1004.3 317.5 935 312.2 942.6 353.2C948 382.1 987.4 383.3 1007.2 368.5C1027.1 353.7 1028 330.1 1028.6 307.2H1028.7Z" fill="white"/>
<path d="M2229.3 403.9C2195.6 400.6 2166.4 375.6 2167.1 340H2208.1C2205.9 386 2295.3 386.3 2293.2 344.3C2292.2 324.3 2270.1 320.6 2254.3 317.5C2212.2 309.3 2165.2 310.9 2172.2 250.8C2180.4 181.3 2328.7 183.8 2324.4 261.3H2285.1C2287.1 222.6 2213.8 222.1 2211.5 255.8C2209.6 283.1 2260.4 282.8 2278.7 286.7C2300.4 291.4 2322.7 298.9 2330.2 322C2340.7 354.6 2324.3 387.5 2292.6 399L2270.5 405.5H2244.3C2241 402.2 2234.2 404.3 2229.6 403.9H2229.3Z" fill="white"/>
<path d="M1687.2 403.9V405.5H1667.5V403.9C1672.8 404.6 1681.6 404.2 1687.2 403.9Z" fill="white"/>
<path d="M709.3 127L815.8 390.8V127H855.1V402.3H777.3L670 136.8V402.3H631.5C631.3 402.3 629 400 629 399.8V127H709.3Z" fill="white"/>
<path d="M1898.5 402.3H1859.2V275.3C1859.2 272.1 1856.2 260.3 1855 256.5C1845 224.7 1804 225.2 1785.5 249.1C1778.1 258.7 1772.4 276.3 1772.4 288.4V402.3H1733.1V205.6H1769.1L1771.6 230.2C1775.1 230.2 1782.9 219.8 1786.4 217.1C1813.9 195.4 1864.7 195.1 1886.2 225.4C1889.9 230.7 1898.6 251.4 1898.6 257.3V402.3H1898.5Z" fill="white"/>
<path d="M1145 205.6L1196.6 389.2L1248.2 205.6H1290.8L1226.1 402.4L1164.8 402.1L1102.4 205.6H1145Z" fill="white"/>
<path d="M1464.4 127V402.3H1425.9C1425.7 402.3 1423.4 400 1423.4 399.8V127H1464.4Z" fill="white"/>
<path d="M1371 205.6H1331.7V402.3H1371V205.6Z" fill="white"/>
<path d="M1372.7 127H1330.1V168H1372.7V127Z" fill="white"/>
<rect x="16" width="532" height="533" rx="266" fill="white"/>
<path d="M275.4 39.2C458 33.1 574.4 235.6 476.6 391C390.1 528.5 191.1 534.7 96.2001 402.7C1.30007 270.7 92.7001 45.3 275.4 39.2ZM266 49C255.9 48.9 241 52.1 231 54.5C221 56.9 228.7 55.2 227.5 55.5C218.5 57.8 206 60.9 198 65.5C191.2 67.8 184.8 71.1 178.5 74.5C172.2 77.9 175.5 75.7 174.5 77C170.8 78.3 167.4 80.7 164 82.8C160.6 84.9 150.9 91 148.5 93.7C146.1 96.4 147.8 94.3 148 95C150.7 95.3 153.3 94.5 156 94.5C166.3 94.6 177 95 187.5 95C198 95 203.8 95 212 95C220.2 95 231.8 95 241.7 95C243.2 95.2 246 97.8 246.5 99C250.7 108.9 254.9 120.3 259 130.5C263.1 140.7 260 133.2 260.5 134.5C267.4 151.8 274.1 169.2 281 186.5C287.9 203.8 282.4 189.5 283 191C284 193.5 285 196 286 198.5C287 201 288.1 203.2 289 205.5C295.9 222.7 302.6 240.2 309.5 257.5C316.4 274.8 310.9 260.6 311.5 262C320.1 283.5 328.4 305 337 326.5C337.7 328.4 338.8 330.3 339.5 332C343 340.7 346.5 349.4 350 358C350.6 359.6 351.4 361.4 352 363C355.6 371.9 358.7 381.1 362.5 390C362.8 390.8 363.8 394.3 364.1 394.4C364.4 394.5 365.1 394.4 365.5 394.4C366.2 394.4 366.8 394.4 367.5 394.4C367.5 392.9 367.5 391.4 367.5 389.9C367.5 386.7 367.5 383.6 367.5 380.4C367.5 377.2 367.5 372.4 367.5 368.4C367.5 364.4 367.5 365.7 367.5 364.4C367.5 339.2 367.5 314.1 367.5 288.9C367.5 286.6 367.5 284.2 367.5 281.9C367.5 276.9 367.5 271.9 367.5 266.9C367.5 261.9 367.5 263.6 367.5 261.9C367.5 240.7 367.5 219.6 367.5 198.4C367.5 196.6 367.5 194.7 367.5 192.9C367.5 179.4 367.5 165.9 367.5 152.4C367.5 150.7 367.5 149.1 367.5 147.4C367.5 137.6 367.5 127.7 367.5 117.9C367.5 108.1 367.5 114.6 367.5 112.9C367.5 107.4 365.4 95.8 372.7 94.9C378.5 94.2 386.8 94.9 393 94.9C399.2 94.9 402 94.9 406.5 94.9C411 94.9 413.2 94.9 416.5 94.9C417.5 93.9 413.9 91.4 412.5 91.4C412.5 89.7 409.6 89.2 408.5 88.4C407.4 87.6 408 87.6 407.5 87.2C392 76.5 374.1 66.9 356 61.4C355 59.6 352 59.9 350.5 59.4C327 51.7 304.5 48.1 279.5 48.4C254.5 48.7 273.8 48.2 271 48.4C268.2 48.6 267.7 49.3 266 48.9V49ZM427.4 116.5C427.4 118.3 427.4 120.2 427.4 122C427.4 129 427.4 136 427.4 143C427.4 144.7 427.4 146.3 427.4 148C427.4 168.7 427.4 189.3 427.4 210C427.4 230.7 427.4 215 427.4 217.5C427.4 243.5 427.4 269.5 427.4 295.5V301C427.4 308.3 427.4 315.7 427.4 323C427.4 330.3 427.4 327 427.4 329C427.4 346 427.4 363 427.4 380C427.4 383.5 427.4 387 427.4 390.5C427.4 395.8 427.4 401.2 427.4 406.5V411C427.4 413.5 427.4 416 427.4 418.5C427.4 421 427.4 421.8 427.4 423.5C427.4 426.1 427.5 428.7 427.4 431.3C427.3 433.9 426.3 434.6 427.6 434C428.9 433.4 437.4 425.2 439.1 423.5C444.8 417.7 449.8 411.3 454.8 405C459.8 398.7 458.3 401.1 459.8 399C469 386.5 476.4 373.7 482.8 359.5C483.9 357 484.8 354.4 485.8 352C490.9 339.6 494.4 329.2 497.3 316C497.6 314.5 498 313 498.3 311.5C502.5 289.7 503.5 267.1 501.3 245C501.1 243.5 501 242 500.8 240.5C498 218 491.5 197.8 482.3 177.5C481.8 176.4 481.4 175.3 480.8 174C473.4 158.4 465.4 145.9 454.8 132.5C454 131.5 453 130.3 452.3 129.5C451.6 128.7 451.5 127.7 450.8 126.8C443.8 118.5 436.1 110.8 428.1 103.5C427 103.3 427.4 104 427.4 104.7C427.1 108.4 427.4 112.7 427.4 116.5ZM121.5 119C120.4 119.1 117.1 123.1 116 124.3C113.7 126.9 112.1 129.2 110.5 132C109.5 131.9 109.3 132.5 108.8 133C103.6 138.8 94.2001 152.9 91.0001 160C89.2001 161.1 89.0001 163.3 88.5001 165C87.6001 165.3 87.5001 166.1 87.1001 166.8C80.5001 179 74.9001 193.1 71.0001 206.5C68.4001 215.5 66.4001 224.7 65.0001 234C58.9001 259.2 62.5001 294.9 68.5001 320C74.5001 345.1 69.7001 325.7 70.5001 328.5C77.2001 352.4 87.4001 373.4 101.5 393.5C115.6 413.6 103.1 397.6 105 398.5C111.9 408.6 120.4 418.6 129.2 427C130.2 427.9 135.8 433.3 136.2 433.5C137.2 433.9 136.9 432.8 136.9 432.3C137.4 425.9 136.9 418.5 136.9 412C136.9 405.5 136.9 408.3 136.9 406.5C136.9 374.5 136.9 342.5 136.9 310.5C136.9 278.5 136.9 305.5 136.9 303C136.9 300.5 136.9 301.7 136.9 301C136.9 298 136.9 295 136.9 292C136.9 257.5 136.9 223 136.9 188.5C136.9 186.2 136.9 183.8 136.9 181.5C136.9 179.2 136.9 178.5 136.9 177C136.9 174 136.9 171 136.9 168C136.9 154.2 136.9 140.3 136.9 126.5C136.9 112.7 136.9 123.8 136.9 122.5C136.9 121.2 136.9 120.8 136.9 120C136.9 118 136.9 116 136.9 114C136.9 110.7 137.1 107.3 136.7 104C131.9 108.2 127 112.3 122.7 117C118.4 121.7 121.4 118 121.5 119ZM203 153C202.8 153 202.4 152.8 202.1 153V193.4C202.1 195.6 202.1 197.7 202.1 199.9C202.1 219.2 202.1 238.6 202.1 257.9C202.1 277.2 202.1 261.6 202.1 263.4C202.1 273.1 202.1 282.7 202.1 292.4C202.1 302.1 202.1 292.7 202.1 292.9C202.1 295.2 202.1 297.6 202.1 299.9C202.1 302.2 202.1 300.6 202.1 300.9C202.1 324.6 202.1 348.2 202.1 371.9C202.1 395.6 202.1 375.2 202.1 376.9C202.1 396.9 202.2 417 202 437C200.8 443.1 191.4 441.3 186.6 441.4C181.8 441.5 185.9 441.4 185.6 441.4C183.3 441.4 180.9 441.4 178.6 441.4C176.3 441.4 177.9 441.4 177.6 441.4C170.4 441.4 163.3 441.2 156.1 441.4C154.6 441.4 153.1 441.3 151.6 441.4C150.1 441.5 148.8 441.6 147.6 442.2C147.6 443.5 150.8 444.9 151.6 445.4C152.9 446.4 154.2 447.4 155.6 448.4C173.7 461.2 192 470.4 213.1 477.4C234.2 484.4 215.5 478 216.6 478.4C237.4 484.9 258.7 488.7 280.6 488.9C281.9 488.9 283.3 488.9 284.6 488.9C304.5 488.7 322.6 485.7 341.6 480.4C360.6 475.1 344.1 479.8 345.6 479.4C365.7 473.4 384.2 465 402 453.8C402.2 453.5 402 453.1 402 452.9C404.1 453 405.6 450.9 407 449.9C410.9 447.3 415 444.9 418.5 441.6C415 441.1 411.5 441.4 408 441.4C404.5 441.4 399.3 441.4 395 441.4C380 441.4 365 441.4 350 441.4C348.7 441.4 347.3 441.4 346 441.4C340.5 441.4 328 442.5 323.8 439.8C319.4 437 315 425.5 313 420.4C311 415.3 312.2 417.5 311.5 415.9C309.5 411.1 307.4 406.2 305.5 401.4C303.6 396.6 304.3 397.8 303.5 395.9C293.5 370.9 283.5 345.9 273.5 320.9C272.6 318.6 271.4 316.2 270.5 313.9C260.9 289.9 251.7 265.5 242 241.4C241.4 239.9 239.8 237.7 239.5 236.9C232.2 218.8 225.4 200.1 218 181.9C210.6 163.7 216.6 178.8 216 177.4C213 169.9 210.8 162.1 207 154.9C203.2 147.7 207.2 153.2 206 152.6C204.8 152 204.1 152.4 203 152.9V153ZM146.8 441.5V442C147.1 441.8 147.1 441.7 146.8 441.5Z" fill="#041256"/>
<path d="M270.5 0C273.5 0 276.5 0 279.5 0C271.2 11.4 259.2 21.9 250 32.7C143.8 46.6 57.9001 134.7 45.8001 241L17.4001 267.1L16.1001 267.6C15.8001 262.9 16.4001 258.3 16.6001 253.6C22.5001 117.9 133.8 4.1 270.5 0Z" fill="#4A80B8"/>
<path d="M548.3 276C548.3 395 454.5 501.2 340.5 526.3C323.3 530.1 305 532.6 287.4 532.2L311.7 505C418.3 492.3 505.7 405.1 518.6 298.5C528.5 289.7 538.1 280.4 548.3 272V276Z" fill="#4A80B8"/>
<path d="M253.8 505.2C261.6 514.5 270.4 523.1 277.9 532.5C192.4 531.9 111.3 487.6 63.1 417.7C14.9 347.8 17.7 325.8 16 274.5C16.9 274.3 17 274.9 17.5 275.2C27.5 282.9 36.9 293.8 46.7 302C60.6 407.4 148.3 492.9 253.7 505.1L253.8 505.2Z" fill="#4A80B8"/>
<path d="M294.4 0C371.6 2.2 446.5 42.7 493.3 103.3C525.6 145.2 548.3 203.1 548.3 256.5C548.3 259 548.3 261.5 548.3 264L518.5 237.3C518 235.6 516.9 235.1 519.1 235C521.3 234.9 528.5 236 530.2 234.4C531.9 232.8 531.6 228.6 528.9 227.8C526.2 227 520.2 228.8 517.2 228.1L516.4 223.6C519.2 222.7 527 223.7 528.8 222C530.6 220.3 530.2 216.2 527.5 215.4C524.8 214.6 524.1 215.9 522.2 216.1C520.3 216.3 514.8 216.9 514.5 216.6C514.2 216.3 514 213.3 514 212.6C516.6 212.4 519.2 211.7 521.8 211.3C524.4 210.9 523.9 212.3 526 210.4C529 207.7 527.1 203.4 523.2 203.6C519.3 203.8 521.2 204.4 520.1 204.6C518.4 204.9 513.5 206 512.2 205.7C510.9 205.4 511 203 510.9 202.4C510.8 201.4 513 201.2 513.9 200.9C517.6 199.8 525.9 200.1 524.8 194.5C523.6 188.8 515.2 193.6 511.8 194.3C508.4 195 508.1 194.4 507.3 190.4C511.8 188.8 516.6 187.4 521.3 186.3C526 185.2 524.1 186.3 525.3 185.8C527.9 184.8 528.1 180.6 525.7 179C523.3 177.4 520.7 179.5 517.8 180.4C514.9 181.3 504.9 184.1 504.3 183.6C503.7 183.1 503.6 180.7 503.3 180.1L515.5 176.5C517.8 174.4 517.9 171.1 515 169.6C512.1 168.1 511.3 170 509 170.9C506.7 171.8 501.3 173.6 500.7 173.6C500.1 173.6 499.2 170.8 499.4 170.6L511.9 166.3C515.9 163.5 513.5 158.2 508.7 159.1C503.9 160 507.2 160.2 506.2 160.6C504.7 161.2 497.1 164.3 496.2 164.1C495.3 163.9 494.8 161.7 494.9 161.4C495.1 160.4 506.1 156.5 507.9 155.8C510.9 153.3 508.6 148.3 504.9 148.8C501.2 149.3 497.7 152.4 495.4 153.3C493.1 154.2 490.2 156 490.4 152.8C490.6 149.6 502 147.4 503.6 145C505.9 141.5 502.7 137.9 498.7 139.1C494.7 140.3 497.3 140.5 496.5 140.9C494.9 141.8 488.9 145.1 487.5 145.4C485.3 145.8 483.9 143.6 486.2 142.1C490.5 139.1 497.1 135.8 501.8 133.3C506.5 130.8 507.6 131.6 508.2 129.2C508.8 126.8 508.2 124.6 505.5 124.1C502.8 123.6 500.6 126.2 498.1 127.7C493.8 130.3 486.8 134.7 482.5 136.6C478.2 138.5 479.5 136.8 479.4 134.2C482.1 132 491.5 128.8 491.7 125.3C491.9 121.8 488.8 120.3 486.3 121.3C484.6 122.5 476.1 129 474.7 128.5C473.3 128 473.1 126.3 473.4 125.6C473.7 124.9 480 121.6 481.1 121C482.2 120.4 483.8 120.6 484.8 118.7C486.3 115.9 484.9 113.4 482 112.6C478.2 112.9 472.9 119.2 469.5 119.9C466.1 120.6 466.7 119.1 466.8 117.8C466.9 116.5 477 111.3 478.3 110.3C480.9 106.6 477 102.5 472.9 104.4C468.8 106.3 471.7 105.9 471 106.5C469.6 107.5 463.8 112 462.8 112.4C461.8 112.8 459.5 110.6 460 109.6C461.2 107.2 470.7 102.4 471.2 100.7C472.4 96.8 468.9 93.6 465.3 95.8C463.7 97.1 456.2 104.3 455 104.5C453.8 104.7 451.9 102.2 453.3 101.3L468.3 86.9C470.5 83.1 466.1 79 462.5 81.6C458.9 84.2 461.1 83.5 460.3 84.4C458.7 86 448 97.3 447.1 97.1C446.2 96.9 444.2 94.5 444.3 94C446.2 90.4 458 84.6 453 80.2C451.6 79 449.6 78.8 448 79.8C446.4 81.2 440.3 88.8 438.9 89.2C437.5 89.6 435.9 87.6 435.8 86.9C435.6 85.8 443.1 78.5 444.5 77.2C446.2 73.2 441.9 69.6 438.5 72.2C435.1 74.8 437.4 74.3 436.5 75.2C435.6 76.1 430.9 81.5 430.4 81.6C429.6 81.8 427.1 80.5 426.8 80.1C425.6 78 435.6 70.9 435.2 67.5C434.8 64.1 430.1 62.8 428.2 65.4L421.2 75.1C420.8 75.4 418.4 73.7 418.2 73.3C417.6 71.4 425.6 64.4 426.1 62.3C426.9 58.6 422.4 56.2 419.6 58.4C418.1 60.3 413.9 68 412.1 69C410.3 70 407.8 67 409.6 65.4C414 60 417.4 53.5 421.6 48.1C425.8 42.7 423.2 47.3 423.7 46.1C425.3 42.5 422.9 39.4 418.9 40.3C414.9 41.2 416.6 43.2 415.6 45C413.1 49.1 406.8 59 403.8 62.2C400.8 65.4 403.1 63.3 401.9 63.2C400.7 63.1 398.4 61.8 398.5 61C398.5 59.8 402 54.7 402.9 53.4C403.8 52.1 404.5 52.4 404.9 51.3C406.5 46.4 401.1 43.4 398.3 46.7C395.5 50 397.6 48.9 397 49.9C396.4 50.9 392.9 56.9 392.5 57.1C391.9 57.5 388.8 56.4 388.6 56.1C387.6 54.7 394.1 46.9 394.5 45.3C395.5 40.8 390.5 38.2 387.6 41.9C384.7 45.6 383.1 52.3 381.8 52.6C380.5 52.9 378.8 51.4 378.6 50.8C378.3 49.6 383.2 42.2 383.5 40.7C384.3 36.5 378.6 34.3 376.3 37.6C374 40.9 375.7 40.2 375.2 41.5C373.8 44.8 372.5 50.4 368.6 46.8C369 43.1 374.4 37.5 372.9 34.1C371.4 30.7 368.1 31.3 366.4 33.1C364.7 34.9 363.3 43.1 362.1 44C360.9 44.9 358.8 43.6 358.7 43.5C358 42.7 362.6 30.4 363.3 28.4C364 26.4 366.5 24 365.1 21.3C363.7 18.6 359.9 18.5 358 21.1C357.7 23.6 357 25.9 356.1 28.2C355.2 30.5 353.4 37.4 352.2 39.3C351 41.2 347.7 40.2 347.6 39.6C346.5 35.7 353.9 26.5 347.3 25C340.7 23.5 342.7 35.9 340.6 37.3C338.5 38.7 336.9 37 336.7 36.8C335.5 35.4 339.7 26.2 338.2 23.6C336.7 21 332.1 21.2 331 24.5C329.9 27.8 331.2 26.5 331 27.5C330.8 28.5 329.9 35.1 329.6 35.4C329.3 35.7 326.2 34.8 326.1 34.7C324.3 33.4 327.5 24.6 327.1 22.2C326.5 18.9 320.3 18.1 319.3 22.4C319 23.6 319.6 24.3 319.5 25.1C319.2 27.9 318.4 30.6 318.5 33.4C317.9 33.2 315.2 33 315 32.9C314.1 32 316.1 21.5 315 19.6C313.3 16.7 308 17.5 307.6 21.2C307.2 24.9 308.6 24.1 307.8 25.3L284.9 0C288.1 0 291.2 0 294.4 0Z" fill="#4C81B9"/>
<path d="M452.4 129.5C453.1 130.3 454.1 131.5 454.9 132.5L447.4 136L447.6 137.5C457.5 149.7 465.9 162.9 473.3 176.8C474.7 177.7 478.9 174.1 480.8 174C481.4 175.3 481.8 176.4 482.3 177.5C481.1 178.4 475.2 180.3 475.4 181.7C484.7 201.2 491 222.4 493.3 244L500.8 240.5C501 242 501.1 243.5 501.3 245L493.9 248.8C496.5 270.3 495 292.2 491.3 313.5L498.3 311.5C498 313 497.6 314.5 497.3 316C495.2 316.6 490.9 317.9 490 320C487.6 331.6 484.6 343.1 480.8 354.3C480.5 356.3 483.1 353.5 483.6 353.1C484.1 352.7 484.9 352.2 485.8 352C484.8 354.4 483.9 357 482.8 359.5C480.7 360.5 478.8 362.9 477.3 364.8C470.5 373 462.4 386.5 459.7 396.7C459.5 397.4 458.9 398.6 459.7 399C458.2 401.1 456.3 403 454.7 405C454.2 401.7 455.4 398.7 455.5 395.5C449.2 403 442.7 410.3 435.5 417C433.1 419.2 430.1 422.1 427.2 423.5C427.2 421.8 427.2 420.2 427.2 418.5C428.2 418.5 428.6 417.8 429.2 417.3C434.2 412.7 438.4 408.7 442.7 403.5C447 398.3 444.3 403.5 444 402L442.2 403.5L427.2 411V406.5C438.3 401.8 448.9 395 456.7 385.8L431.5 384.5C429.5 384.9 429.2 389.4 427.3 390.5C427.3 387 427.3 383.5 427.3 380C428.6 380.2 428.8 379.7 429.4 378.9C431.1 376.9 432.7 373.1 434.3 370.8C438.1 364.9 442.3 359.2 446.2 353.4L427.3 329.1C427.3 327.1 427.3 325.1 427.3 323.1L449 350.1C451.8 346.8 454.6 343.3 457.5 340.1C459.3 338.2 464.3 334.1 465.3 332.4C466.3 330.7 465.8 331.3 465.8 330.4C466 324.6 463.6 312.8 462.5 306.6C461.4 300.4 461.2 299.6 460.4 296.2C459.6 292.8 456.1 277.2 455.2 276.6C454.3 276 454.1 276.6 453.7 276.8C452.4 277.5 447.7 281.9 446.2 283.3C440.2 288.5 435 294.5 429.2 299.8C428.6 300.4 428.2 301.1 427.2 301V295.5C429.7 291.9 453 273 453.2 271.2C453.4 269.4 450.7 263.6 450.1 261.8C444.4 246.4 436.6 230.9 427.2 217.4C427.2 214.9 427.2 212.4 427.2 209.9L428.9 210.4C439.9 200 451.7 190.6 464.4 182.4C477.1 174.2 469 180.1 469.1 179.9C469.8 178.9 466.9 173.9 466.2 172.6C460 160.6 451.6 149.8 443.5 139C441.7 138 429.9 147.3 427.1 147.9C427.1 146.2 427.1 144.6 427.1 142.9C430.6 141.1 435.6 138.7 438.8 136.3C442 133.9 439.7 135.9 439.6 135.1C439.6 133.5 429 123.6 427.1 121.8C427.1 120 427.1 118.1 427.1 116.3L443.4 132.7C445.2 133.3 449.9 129.4 452.1 129.3L452.4 129.5ZM489.8 246.5C486.8 224.8 481.6 203 471.5 183.6C469.9 183.1 453.8 195 451.4 196.9C447.5 199.9 443.5 203.1 439.8 206.3C436.1 209.5 432.1 212.9 431.6 214.1C431.1 215.3 431.2 215.4 431.6 216.1C442.1 232.5 450.7 250.1 456.8 268.6L489.7 246.5H489.8ZM490.4 251L477.3 259.1C475 260.6 459.4 271.8 459 272.8C458.6 273.8 463.4 290.2 464.1 293.1C466.8 304.6 468.6 316.3 469.9 328C475.4 323.8 480.8 319.5 486.9 316.1C490.8 294.6 492.1 272.7 490.4 251ZM471.4 365.5C472.5 365 473.1 364 473.6 363C475.4 359.3 477.2 353 478.5 348.9C481.3 340.1 483.7 331.1 485.4 322C480 325.1 475 329 470.5 333.4C470.6 344.1 471.7 354.8 471.4 365.5ZM466.4 337.5C461.1 342.4 455.8 347.7 451.9 353.8L464.7 376C468.2 372.6 466.8 367.3 466.9 362.7C467 358.1 466.9 356.6 466.9 353.2C466.9 347.9 467.2 342.6 466.4 337.4V337.5ZM449.4 357.5C448.6 357.3 448.4 357.8 447.9 358.3C445.4 360.9 435.7 375.4 434.3 378.7C432.9 382 433.8 379.8 433.9 380.6C437.4 380.9 460.3 382.6 461.3 381C462.3 379.4 459.4 375 458.6 373.6C455.8 368.1 452.1 363.1 449.3 357.6L449.4 357.5Z" fill="#5083BA"/>
<path d="M137 120C135.3 120.8 134.8 122.2 137 122.5C137 123.8 137 125.2 137 126.5L131.6 125.6C130.5 128.2 123.5 134 123.5 136.2C127.1 147.1 131.5 157.9 137 168C137 171 137 174 137 177L119.8 140C119.2 140.3 112 149.6 111.7 150.4C110.7 153 110 161.1 109.6 164.3C107.9 178.4 107.9 192.5 108 206.8L109.8 223L137 181.5C137 183.8 137 186.2 137 188.5C127.3 201.8 118.5 215.8 110.7 230.3C114.3 253.9 122.4 276.5 133.5 297.5L137 292C137 295 137 298 137 301C136.2 301.2 136.3 302.8 137 303C137 305.5 137 308 137 310.5L134 306.7C124.7 325.8 115.9 346.1 110.7 366.8C105.5 387.5 108.6 373.5 109.3 375.4C117.7 386.3 126.4 397.7 137 406.4C137 408.2 137 410.1 137 411.9C136 411.9 135.6 411.2 135 410.7C124.9 401.6 116.3 391 107.8 380.4C106.2 386.3 105.8 392.4 105.1 398.4C103.2 397.5 102.6 394.9 101.6 393.4L104.4 375.4C91.5001 356.5 81.2001 335.6 75.1001 313.4L70.6001 328.4C69.8001 325.6 69.3001 322.8 68.6001 319.9C69.4001 316 73.0001 308.8 73.0001 305.2C73.0001 301.6 70.3001 292.3 69.7001 287.6C66.4001 263.4 67.9001 238.3 72.6001 214.4C71.7001 214.5 71.7001 215.4 71.5001 216C69.1001 221.4 66.5001 228.2 65.1001 233.9C66.5001 224.6 68.5001 215.4 71.1001 206.4C72.0001 206.1 72.1001 205.3 72.5001 204.6C78.7001 193.2 84.5001 177.7 88.6001 165.4C90.2001 164.1 90.4001 161.4 91.1001 159.9C94.2001 152.9 103.7 138.7 108.9 132.9C114.1 127.1 109.6 131.7 110.6 131.9C105.6 140.7 100.6 149.6 96.2001 158.7C91.8001 167.8 91.8001 168.1 90.1001 172.9C91.5001 173.2 91.0001 172.5 91.3001 171.9C93.9001 168 96.5001 164.1 99.2001 160.2C101.9 156.3 106.6 151.3 107.7 148.7C108.8 146.1 109.8 138.6 110.4 135.4C111 132.2 111.3 131.9 110.5 131.8C112.1 128.9 113.7 126.7 116 124.1C118.3 121.5 120.4 119 121.5 118.8C124.1 118.5 128.5 120.8 130.6 120.2C132.7 119.6 135.1 114.8 137 113.8C137 115.8 137 117.8 137 119.8V120ZM127.5 124L119 122.5L121.5 131C121.9 131.3 127.8 124.3 127.5 124ZM113.5 141C114.5 140 118.2 136.1 118.4 135.1C118.8 133.6 116.7 129.7 116.5 128C115.7 128.5 115.5 130.6 115.2 131.5C114.4 134.6 113.7 137.8 113.5 141ZM106.3 157.5V158C106.6 157.8 106.6 157.7 106.3 157.5ZM76.0001 296.5C76.5001 296 79.9001 285.3 80.6001 283.4C87.9001 264.8 96.7001 246.7 106.3 229.2C103.4 213 103.9 196.6 103.9 180.2L105.9 158.5C102.9 161.5 100.3 165.5 97.8001 169.1C86.7001 185.3 80.9001 194.9 76.7001 214.5C71.5001 238.4 69.3001 271.9 75.0001 295.8C75.1001 296.4 75.1001 297.4 76.0001 296.5ZM89.8001 173.5V174C90.1001 173.8 90.1001 173.7 89.8001 173.5ZM73.0001 214C73.4001 213.3 72.7001 212.7 72.5001 213C72.1001 213.7 72.8001 214.3 73.0001 214ZM106 369.5C111.3 346 121 323.8 131.5 302.2C120.3 281.6 111.7 259.6 107.5 236.5C107.1 236.2 103.1 243.8 102.7 244.5C95.4001 258.3 88.4001 274.1 83.0001 288.8C77.6001 303.5 77.6001 302.5 77.5001 305.8C77.4001 309.1 81.9001 322.3 83.5001 326.8C88.0001 339.3 96.7001 358.6 104.9 368.9C113.1 379.2 104.9 369.8 106 369.5Z" fill="#4F82B9"/>
<path d="M242 241.5C240.7 241.5 240 243.1 239.3 244.1C235.8 248.8 232.4 253.6 229.1 258.4C225.8 263.2 221.2 269.1 219.9 272.2C218.6 275.3 219.4 273.1 219.6 273.7C219.8 274.3 231.3 284.4 233 285.8C244.9 295.9 257.6 305.2 270.5 314C271.4 316.3 272.6 318.7 273.5 321C271.6 320.7 270.3 324.2 269.4 325.7C257 346.6 246.7 369.8 238 392.5C256.9 401 276.4 408.3 296.7 413L303.5 396C304.3 397.9 304.8 399.8 305.5 401.5L301 414L311.5 416C312.2 417.6 312.5 419.4 313 420.5L299.6 418C294.2 434.7 288.9 451.9 287.1 469.5C300.3 469.7 313.6 468.9 326.7 466.9C329.5 466.5 340.5 464.7 342.3 463.6C344.1 462.5 345.3 444.2 346.1 441.6C347.4 441.6 348.8 441.6 350.1 441.6C349.7 448.2 347.6 454.7 347.1 461.4C346.6 468.1 347.1 462.2 347.9 462.2C350.7 462 357 459.7 359.9 458.7C371.2 454.9 382.2 449.7 392.6 443.9C403 438.1 395.2 442.9 395.1 441.6C399.4 441.6 403.8 441.6 408.1 441.6L407.1 450.1C405.7 451.1 404.2 453.2 402.1 453.1C402.8 450.6 403.8 445.5 404.1 442.8C404.4 440.1 404.1 441.8 403.4 442.1C401.1 442.8 394.9 447.4 392.2 448.9C377.9 456.6 362.5 462.9 346.8 466.7L345.7 479.6C344.2 480 343 480.2 341.7 480.6L342.2 468.1C324 472.2 305.3 474.2 286.5 473.6L284.7 489.1C283.4 489.1 282 489.1 280.7 489.1L282.2 473.6C272.1 472.7 262.1 471.7 252.2 469.8C241 467.7 230.2 464.3 219.2 461.6L216.7 478.6C215.6 478.2 214.4 478 213.2 477.6L215.1 459.7C202.5 455 190.2 449.5 178.7 442.6V441.6C181 441.6 183.4 441.6 185.7 441.6C185.4 443.2 186.2 442.4 186.7 442.6C196.5 446.8 205.9 452.5 216.2 455.6C219.4 434.7 226 414.4 232.6 394.4L231.8 393.6L202.1 377C202.1 375.3 202.1 373.7 202.1 372C203.1 371.8 203.7 372.4 204.5 372.9C211.2 376.9 217.5 381.3 224.3 385.1C231.1 388.9 233.9 390.5 234.6 390C240.1 375.4 246.4 361 253.4 347C260.4 333 264.7 328.2 268.3 319.9C271.9 311.6 268.8 318.9 268.7 318.3V317.7C250.4 305.8 233.8 291.8 217.3 277.7C216.5 277.6 214.9 280.4 214.4 281.2C210.4 287.3 206.9 293.9 203.1 300.2H202.1C202.1 297.9 202.1 295.5 202.1 293.2L202.6 292.7C203.9 289.9 213.6 276.1 213.6 274.4C213.6 272.7 213.3 273.5 212.9 273.1C208.8 270.6 206.3 265.9 202.1 263.6C202.1 261.8 202.1 259.9 202.1 258.1C203.2 257.9 203.6 258.5 204.4 259.1C208 262.1 211.8 267.7 215.4 270.1C219 272.5 215.9 270.8 216.6 270.6L239.6 237.1C239.9 237.9 241.5 240.1 242.1 241.6L242 241.5ZM294.9 416.5C278.1 413 261.8 407.2 246.1 400.6C244.5 399.9 237.4 396.1 236.4 396.7C235.4 397.3 227.1 424.7 226.1 428.4C225.2 431.8 219.2 455.7 220 456.9C240 463.8 261.1 468.4 282.4 468.9C284.3 457.8 286.7 446.7 289.6 435.8C290.3 433.3 295.7 417.2 294.9 416.4V416.5Z" fill="#5285BA"/>
<path d="M279.5 48.5004L278 50.0004C295.3 51.4004 312.4 54.9004 329 59.8004C345.6 64.7004 340.9 64.3004 342.5 63.8004C344.1 63.3004 348.1 60.1004 350.5 59.5004C352 60.0004 355 59.7004 356 61.5004L347 66.0004C360.4 71.0004 373.3 77.4004 385.6 84.6004C397.9 91.8004 395.2 91.5004 398.1 92.6004C401 93.7004 405.9 89.8004 408.5 88.5004C409.6 89.3004 412.4 89.8004 412.5 91.5004C411.4 91.5004 408.9 93.0004 407.8 93.6004C406.7 94.2004 406.2 93.8004 406.5 95.0004C402 95.0004 397.5 95.0004 393 95.0004C392.5 93.2004 389.8 92.0004 388.3 91.0004C374.3 82.0004 358.6 74.9004 343.1 68.7004C342.2 68.4004 341.5 69.0004 340.7 69.4004C328.8 75.1004 311.2 89.3004 300.8 98.0004C297.7 100.6 294.3 103.2 291.4 105.9C288.5 108.6 290.9 106.2 291.1 106.9C309 113.1 326.1 121.3 342.4 130.8L367.6 112.9C367.6 114.6 367.6 116.2 367.6 117.9L346.6 133.2L367.6 147.4C367.6 149.1 367.6 150.7 367.6 152.4C361.4 148.3 355.4 143.6 349.1 139.7C342.8 135.8 344.1 136.1 342.5 136.5C340.9 136.9 330.8 145.8 328.9 147.4C313.9 160.2 298.3 175 285.2 189.6C272.1 204.2 284.2 190.8 283.2 190.9C282.6 189.4 281.8 187.9 281.2 186.4C284 186.2 285.5 182.9 287.2 181.1C303.5 164.1 321.2 148.6 339.2 133.4C322.6 124.3 305.5 115.9 287.5 109.9L260.8 134.4C260.3 133.1 259.8 131.7 259.3 130.4L282.3 107.9L246.8 98.9004C246.3 97.7004 243.5 95.1004 242 94.9004C232.1 94.9004 222.2 94.9004 212.3 94.9004C206.4 93.6004 199.6 93.6004 193.5 93.9004C187.4 94.2004 189.4 94.3004 187.8 94.9004C177.3 94.9004 166.7 94.5004 156.3 94.4004L175.3 76.9004C176.7 76.5004 178.1 75.7004 178.8 74.4004C185.1 71.0004 191.5 67.7004 198.3 65.4004C192.2 68.9004 184.6 74.9004 179.1 79.4004C173.6 83.8004 168.4 88.6004 163.3 93.4004C181 90.2004 199 89.2004 216.9 90.8004C231.8 77.5004 247.1 64.3004 264.2 53.9004C264.3 53.1004 263.5 53.4004 263 53.4004C253 52.9004 241.2 53.4004 231.3 54.9004V54.4004C241.3 52.0004 256.2 48.8004 266.3 48.9004C276.4 49.0004 271.7 50.7004 271.3 48.4004C274.1 48.2004 277 48.4004 279.8 48.4004L279.5 48.5004ZM336.9 66.5004C315.9 59.5004 294 54.9004 271.8 53.6004C254.2 64.6004 237.6 77.3004 222.5 91.5004C244.1 93.2004 265.2 98.4004 285.7 105C293.2 99.5004 300.1 93.1004 307.5 87.3004C317 79.9004 326.9 73.2004 336.9 66.5004Z" fill="#5083BA"/>
<path d="M367.4 193C367.4 194.8 367.4 196.7 367.4 198.5C360.6 204.9 353.9 211.6 347.7 218.5C341.5 225.4 334.4 233.2 334.5 234.2L367.4 262C367.4 263.7 367.4 265.3 367.4 267L331.6 237.6L311.4 262C310.8 260.6 310 259.1 309.4 257.5L327.9 234.3L288.9 205.5C288 203.2 286.8 200.8 285.9 198.5L330.6 231C331.8 231 340 220.7 341.6 219C349 211 357.3 201.5 365.3 194.2C373.3 186.9 366.3 192.9 367.3 193H367.4Z" fill="#5083BA"/>
<path d="M367.4 289C357 302.6 348.1 317.3 339.4 332C338.7 330.3 337.6 328.4 336.9 326.5L367.4 282C367.4 284.3 367.4 286.7 367.4 289Z" fill="#5083BA"/>
<path d="M218 182C212.7 186.8 208.8 193.5 204 198.7C199.2 203.9 203 199.9 202 200C202 197.8 202 195.7 202 193.5L216 177.5C216.6 178.9 217.4 180.4 218 182Z" fill="#6A8EBB"/>
<path d="M367.4 364.5C367.4 365.8 367.4 367.2 367.4 368.5C362 367.6 357 364.8 351.9 363C351.3 361.4 350.5 359.6 349.9 358L367.4 364.5Z" fill="#4F82B9"/>
<path d="M367.4 390C366.1 390.8 365.6 393 365.4 394.5C365 394.5 364.3 394.7 364 394.5C363.7 394.3 362.7 390.8 362.4 390.1L367.4 380.6C367.4 383.8 367.4 386.9 367.4 390.1V390Z" fill="#4C81B9"/>
<path d="M156 441.5L155.5 448.5C154.1 447.5 152.8 446.5 151.5 445.5V441.5C153 441.4 154.5 441.5 156 441.5Z" fill="#6A8EBB"/>
<path d="M212 95C203.8 95 195.7 95 187.5 95C189.1 94.3 191.5 94.1 193.2 94C199.2 93.7 206.1 93.7 212 95Z" fill="#6A8EBB"/>
<path d="M207 155L203 153C204.1 152.6 204.6 152.1 206 152.7C207.4 153.3 206.7 154.5 207 155Z" fill="#6A8EBB"/>
<path d="M271 48.5C271.4 50.8 267 49 266 49C267.7 49.4 269.5 48.6 271 48.5Z" fill="#F8F9FB"/>
<path d="M231 54.5V55C230.1 55.1 228.8 56 227.5 55.5C228.7 55.2 229.8 54.8 231 54.5Z" fill="#6A8EBB"/>
<path d="M175 77H174.5C175.5 75.7 177.2 75.2 178.5 74.5C177.8 75.8 176.4 76.6 175 77Z" fill="#6A8EBB"/>
<path d="M203 300C202.8 300.3 203.4 301.3 202 301C202 300.7 202 300.3 202 300H203Z" fill="#6A8EBB"/>
<path d="M186.5 441.5V442.5C186 442.3 185.2 443.1 185.5 441.5C185.8 441.5 186.2 441.5 186.5 441.5Z" fill="#6A8EBB"/>
<path d="M178.5 441.5V442.5C178.2 442.3 177.2 442.9 177.5 441.5C177.8 441.5 178.2 441.5 178.5 441.5Z" fill="#6A8EBB"/>
<path d="M146.8 441.5C147.1 441.7 147.1 441.8 146.8 442V441.5Z" fill="#6A8EBB"/>
<path d="M202 293C202 292.8 202 292.7 202 292.5H202.5L202 293Z" fill="#6A8EBB"/>
<path d="M442.4 403.5L444.2 402C444.6 403.4 443 403.4 442.9 403.5H442.4Z" fill="#6A8EBB"/>
</g>
<defs>
<clipPath id="clip0_500_3834">
<rect width="2333.2" height="532.5" fill="white"/>
</clipPath>
</defs>
</svg>
