<?xml version="1.0" encoding="UTF-8"?>
<svg id="Layer_1" xmlns="http://www.w3.org/2000/svg" version="1.1" viewBox="0 0 2333.2 532.5">
  <!-- Generator: Adobe Illustrator 29.4.0, SVG Export Plug-In . SVG Version: 2.1.0 Build 152)  -->
  <defs>
    <style>
      .st0 {
        fill: #f8f9fb;
      }

      .st1 {
        fill: #6a8ebb;
      }

      .st2 {
        fill: #041256;
      }

      .st3 {
        fill: #fff;
      }

      .st4 {
        fill: #4f82b9;
      }

      .st5 {
        fill: #4c81b9;
      }

      .st6 {
        fill: #5285ba;
      }

      .st7 {
        fill: #4a80b8;
      }

      .st8 {
        fill: #5083ba;
      }
    </style>
  </defs>
  <g>
    <path class="st2" d="M259.4,39.2c182.6-6.1,299,196.4,201.2,351.8-86.5,137.5-285.5,143.7-380.4,11.7s-3.5-357.4,179.2-363.5ZM250,49c-10.1-.1-25,3.1-35,5.5s-2.3.7-3.5,1c-9,2.3-21.5,5.4-29.5,10-6.8,2.3-13.2,5.6-19.5,9s-3,1.2-4,2.5c-3.7,1.3-7.1,3.7-10.5,5.8s-13.1,8.2-15.5,10.9-.7.6-.5,1.3c2.7.3,5.3-.5,8-.5,10.3.1,21,.5,31.5.5s16.3,0,24.5,0,19.8,0,29.7,0c1.5.2,4.3,2.8,4.8,4,4.2,9.9,8.4,21.3,12.5,31.5s1,2.7,1.5,4c6.9,17.3,13.6,34.7,20.5,52s1.4,3,2,4.5c1,2.5,2,5,3,7.5s2.1,4.7,3,7c6.9,17.2,13.6,34.7,20.5,52s1.4,3.1,2,4.5c8.6,21.5,16.9,43,25.5,64.5.7,1.9,1.8,3.8,2.5,5.5,3.5,8.7,7,17.4,10.5,26,.6,1.6,1.4,3.4,2,5,3.6,8.9,6.7,18.1,10.5,27,.3.8,1.3,4.3,1.6,4.4s1,0,1.4,0c.7,0,1.3,0,2,0,0-1.5,0-3,0-4.5,0-3.2,0-6.3,0-9.5s0-8,0-12,0-2.7,0-4c0-25.2,0-50.3,0-75.5,0-2.3,0-4.7,0-7,0-5,0-10,0-15s0-3.3,0-5c0-21.2,0-42.3,0-63.5,0-1.8,0-3.7,0-5.5,0-13.5,0-27,0-40.5,0-1.7,0-3.3,0-5,0-9.8,0-19.7,0-29.5s0-3.3,0-5c0-5.5-2.1-17.1,5.2-18,5.8-.7,14.1,0,20.3,0s9,0,13.5,0,6.7,0,10,0c1-1-2.6-3.5-4-3.5,0-1.7-2.9-2.2-4-3s-.5-.8-1-1.2c-15.5-10.7-33.4-20.3-51.5-25.8-1-1.8-4-1.5-5.5-2-23.5-7.7-46-11.3-71-11s-5.7-.2-8.5,0-3.3.9-5,.5ZM411.4,116.5c0,1.8,0,3.7,0,5.5,0,7,0,14,0,21,0,1.7,0,3.3,0,5,0,20.7,0,41.3,0,62s0,5,0,7.5c0,26,0,52,0,78v5.5c0,7.3,0,14.7,0,22s0,4,0,6c0,17,0,34,0,51,0,3.5,0,7,0,10.5,0,5.3,0,10.7,0,16v4.5c0,2.5,0,5,0,7.5s0,3.3,0,5c0,2.6.1,5.2,0,7.8s-1.1,3.3.2,2.7,9.8-8.8,11.5-10.5c5.7-5.8,10.7-12.2,15.7-18.5s3.5-3.9,5-6c9.2-12.5,16.6-25.3,23-39.5,1.1-2.5,2-5.1,3-7.5,5.1-12.4,8.6-22.8,11.5-36,.3-1.5.7-3,1-4.5,4.2-21.8,5.2-44.4,3-66.5-.2-1.5-.3-3-.5-4.5-2.8-22.5-9.3-42.7-18.5-63-.5-1.1-.9-2.2-1.5-3.5-7.4-15.6-15.4-28.1-26-41.5-.8-1-1.8-2.2-2.5-3s-.8-1.8-1.5-2.7c-7-8.3-14.7-16-22.7-23.3-1.1-.2-.7.5-.7,1.2-.3,3.7,0,8,0,11.8ZM105.5,119c-1.1.1-4.4,4.1-5.5,5.3-2.3,2.6-3.9,4.9-5.5,7.7-1-.1-1.2.5-1.7,1-5.2,5.8-14.6,19.9-17.8,27-1.8,1.1-2,3.3-2.5,5-.9.3-1,1.1-1.4,1.8-6.6,12.2-12.2,26.3-16.1,39.7-2.6,9-4.6,18.2-6,27.5-6.1,25.2-2.5,60.9,3.5,86s1.2,5.7,2,8.5c6.7,23.9,16.9,44.9,31,65s1.6,4.1,3.5,5c6.9,10.1,15.4,20.1,24.2,28.5,1,.9,6.6,6.3,7,6.5,1,.4.7-.7.7-1.2.5-6.4,0-13.8,0-20.3s0-3.7,0-5.5c0-32,0-64,0-96s0-5,0-7.5,0-1.3,0-2c0-3,0-6,0-9,0-34.5,0-69,0-103.5,0-2.3,0-4.7,0-7s0-3,0-4.5c0-3,0-6,0-9,0-13.8,0-27.7,0-41.5s0-2.7,0-4,0-1.7,0-2.5c0-2,0-4,0-6,0-3.3.2-6.7-.2-10-4.8,4.2-9.7,8.3-14,13s-1.3,1-1.2,2ZM187,153c-.2,0-.6-.2-.9,0v40.4c0,2.2,0,4.3,0,6.5,0,19.3,0,38.7,0,58s0,3.7,0,5.5c0,9.7,0,19.3,0,29s0,.3,0,.5c0,2.3,0,4.7,0,7s0,.7,0,1c0,23.7,0,47.3,0,71s0,3.3,0,5c0,20,.1,40.1-.1,60.1-1.2,6.1-10.6,4.3-15.4,4.4s-.7,0-1,0c-2.3,0-4.7,0-7,0s-.7,0-1,0c-7.2,0-14.3-.2-21.5,0-1.5,0-3-.1-4.5,0s-2.8.2-4,.8c0,1.3,3.2,2.7,4,3.2,1.3,1,2.6,2,4,3,18.1,12.8,36.4,22,57.5,29s2.4.6,3.5,1c20.8,6.5,42.1,10.3,64,10.5,1.3,0,2.7,0,4,0,19.9-.2,38-3.2,57-8.5s2.5-.6,4-1c20.1-6,38.6-14.4,56.4-25.6.2-.3,0-.7,0-.9,2.1.1,3.6-2,5-3,3.9-2.6,8-5,11.5-8.3-3.5-.5-7-.2-10.5-.2s-8.7,0-13,0c-15,0-30,0-45,0-1.3,0-2.7,0-4,0-5.5,0-18,1.1-22.2-1.6-4.4-2.8-8.8-14.3-10.8-19.4s-.8-2.9-1.5-4.5c-2-4.8-4.1-9.7-6-14.5s-1.2-3.6-2-5.5c-10-25-20-50-30-75-.9-2.3-2.1-4.7-3-7-9.6-24-18.8-48.4-28.5-72.5-.6-1.5-2.2-3.7-2.5-4.5-7.3-18.1-14.1-36.8-21.5-55s-1.4-3.1-2-4.5c-3-7.5-5.2-15.3-9-22.5s.2-1.7-1-2.3-1.9-.2-3,.3ZM130.8,441.5v.5c.3-.2.3-.3,0-.5Z"/>
    <path class="st7" d="M254.5,0c3,0,6,0,9,0-8.3,11.4-20.3,21.9-29.5,32.7C127.8,46.6,41.9,134.7,29.8,241l-28.4,26.1-1.3.5c-.3-4.7.3-9.3.5-14C6.5,117.9,117.8,4.1,254.5,0Z"/>
    <path class="st7" d="M532.3,276c0,119-93.8,225.2-207.8,250.3-17.2,3.8-35.5,6.3-53.1,5.9l24.3-27.2c106.6-12.7,194-99.9,206.9-206.5,9.9-8.8,19.5-18.1,29.7-26.5v4Z"/>
    <path class="st7" d="M237.8,505.2c7.8,9.3,16.6,17.9,24.1,27.3-85.5-.6-166.6-44.9-214.8-114.8S1.7,325.8,0,274.5c.9-.2,1,.4,1.5.7,10,7.7,19.4,18.6,29.2,26.8,13.9,105.4,101.6,190.9,207,203.1Z"/>
    <path class="st5" d="M278.4,0c77.2,2.2,152.1,42.7,198.9,103.3,32.3,41.9,55,99.8,55,153.2,0,2.5,0,5,0,7.5l-29.8-26.7c-.5-1.7-1.6-2.2.6-2.3s9.4,1,11.1-.6,1.4-5.8-1.3-6.6-8.7,1-11.7.3l-.8-4.5c2.8-.9,10.6.1,12.4-1.6s1.4-5.8-1.3-6.6-3.4.5-5.3.7-7.4.8-7.7.5-.5-3.3-.5-4c2.6-.2,5.2-.9,7.8-1.3s2.1,1,4.2-.9c3-2.7,1.1-7-2.8-6.8s-2,.8-3.1,1c-1.7.3-6.6,1.4-7.9,1.1s-1.2-2.7-1.3-3.3c-.1-1,2.1-1.2,3-1.5,3.7-1.1,12-.8,10.9-6.4-1.2-5.7-9.6-.9-13-.2s-3.7.1-4.5-3.9c4.5-1.6,9.3-3,14-4.1s2.8,0,4-.5c2.6-1,2.8-5.2.4-6.8s-5,.5-7.9,1.4-12.9,3.7-13.5,3.2-.7-2.9-1-3.5l12.2-3.6c2.3-2.1,2.4-5.4-.5-6.9s-3.7.4-6,1.3-7.7,2.7-8.3,2.7-1.5-2.8-1.3-3l12.5-4.3c4-2.8,1.6-8.1-3.2-7.2s-1.5,1.1-2.5,1.5c-1.5.6-9.1,3.7-10,3.5s-1.4-2.4-1.3-2.7c.2-1,11.2-4.9,13-5.6,3-2.5.7-7.5-3-7s-7.2,3.6-9.5,4.5-5.2,2.7-5-.5,11.6-5.4,13.2-7.8c2.3-3.5-.9-7.1-4.9-5.9s-1.4,1.4-2.2,1.8c-1.6.9-7.6,4.2-9,4.5-2.2.4-3.6-1.8-1.3-3.3,4.3-3,10.9-6.3,15.6-8.8s5.8-1.7,6.4-4.1,0-4.6-2.7-5.1-4.9,2.1-7.4,3.6c-4.3,2.6-11.3,7-15.6,8.9s-3,.2-3.1-2.4c2.7-2.2,12.1-5.4,12.3-8.9s-2.9-5-5.4-4c-1.7,1.2-10.2,7.7-11.6,7.2s-1.6-2.2-1.3-2.9,6.6-4,7.7-4.6,2.7-.4,3.7-2.3c1.5-2.8.1-5.3-2.8-6.1-3.8.3-9.1,6.6-12.5,7.3s-2.8-.8-2.7-2.1,10.2-6.5,11.5-7.5c2.6-3.7-1.3-7.8-5.4-5.9s-1.2,1.5-1.9,2.1c-1.4,1-7.2,5.5-8.2,5.9s-3.3-1.8-2.8-2.8c1.2-2.4,10.7-7.2,11.2-8.9,1.2-3.9-2.3-7.1-5.9-4.9-1.6,1.3-9.1,8.5-10.3,8.7s-3.1-2.3-1.7-3.2l15-14.4c2.2-3.8-2.2-7.9-5.8-5.3s-1.4,1.9-2.2,2.8c-1.6,1.6-12.3,12.9-13.2,12.7s-2.9-2.6-2.8-3.1c1.9-3.6,13.7-9.4,8.7-13.8-1.4-1.2-3.4-1.4-5-.4-1.6,1.4-7.7,9-9.1,9.4s-3-1.6-3.1-2.3c-.2-1.1,7.3-8.4,8.7-9.7,1.7-4-2.6-7.6-6-5s-1.1,2.1-2,3-5.6,6.3-6.1,6.4c-.8.2-3.3-1.1-3.6-1.5-1.2-2.1,8.8-9.2,8.4-12.6s-5.1-4.7-7-2.1l-7,9.7c-.4.3-2.8-1.4-3-1.8-.6-1.9,7.4-8.9,7.9-11,.8-3.7-3.7-6.1-6.5-3.9-1.5,1.9-5.7,9.6-7.5,10.6s-4.3-2-2.5-3.6c4.4-5.4,7.8-11.9,12-17.3s1.6-.8,2.1-2c1.6-3.6-.8-6.7-4.8-5.8s-2.3,2.9-3.3,4.7c-2.5,4.1-8.8,14-11.8,17.2s-.7,1.1-1.9,1-3.5-1.4-3.4-2.2c0-1.2,3.5-6.3,4.4-7.6s1.6-1,2-2.1c1.6-4.9-3.8-7.9-6.6-4.6s-.7,2.2-1.3,3.2-4.1,7-4.5,7.2c-.6.4-3.7-.7-3.9-1-1-1.4,5.5-9.2,5.9-10.8,1-4.5-4-7.1-6.9-3.4s-4.5,10.4-5.8,10.7-3-1.2-3.2-1.8c-.3-1.2,4.6-8.6,4.9-10.1.8-4.2-4.9-6.4-7.2-3.1s-.6,2.6-1.1,3.9c-1.4,3.3-2.7,8.9-6.6,5.3.4-3.7,5.8-9.3,4.3-12.7s-4.8-2.8-6.5-1-3.1,10-4.3,10.9-3.3-.4-3.4-.5c-.7-.8,3.9-13.1,4.6-15.1s3.2-4.4,1.8-7.1-5.2-2.8-7.1-.2c-.3,2.5-1,4.8-1.9,7.1s-2.7,9.2-3.9,11.1-4.5.9-4.6.3c-1.1-3.9,6.3-13.1-.3-14.6s-4.6,10.9-6.7,12.3-3.7-.3-3.9-.5c-1.2-1.4,3-10.6,1.5-13.2s-6.1-2.4-7.2.9.2,2,0,3-1.1,7.6-1.4,7.9-3.4-.6-3.5-.7c-1.8-1.3,1.4-10.1,1-12.5-.6-3.3-6.8-4.1-7.8.2-.3,1.2.3,1.9.2,2.7-.3,2.8-1.1,5.5-1,8.3-.6-.2-3.3-.4-3.5-.5-.9-.9,1.1-11.4,0-13.3-1.7-2.9-7-2.1-7.4,1.6s1,2.9.2,4.1L268.9,0c3.2,0,6.3,0,9.5,0Z"/>
    <path class="st8" d="M436.4,129.5c.7.8,1.7,2,2.5,3l-7.5,3.5.2,1.5c9.9,12.2,18.3,25.4,25.7,39.3,1.4.9,5.6-2.7,7.5-2.8.6,1.3,1,2.4,1.5,3.5-1.2.9-7.1,2.8-6.9,4.2,9.3,19.5,15.6,40.7,17.9,62.3l7.5-3.5c.2,1.5.3,3,.5,4.5l-7.4,3.8c2.6,21.5,1.1,43.4-2.6,64.7l7-2c-.3,1.5-.7,3-1,4.5-2.1.6-6.4,1.9-7.3,4-2.4,11.6-5.4,23.1-9.2,34.3-.3,2,2.3-.8,2.8-1.2s1.3-.9,2.2-1.1c-1,2.4-1.9,5-3,7.5-2.1,1-4,3.4-5.5,5.3-6.8,8.2-14.9,21.7-17.6,31.9-.2.7-.8,1.9,0,2.3-1.5,2.1-3.4,4-5,6-.5-3.3.7-6.3.8-9.5-6.3,7.5-12.8,14.8-20,21.5-2.4,2.2-5.4,5.1-8.3,6.5,0-1.7,0-3.3,0-5,1,0,1.4-.7,2-1.2,5-4.6,9.2-8.6,13.5-13.8s1.6,0,1.3-1.5l-1.8,1.5-15,7.5v-4.5c11.1-4.7,21.7-11.5,29.5-20.7l-25.2-1.3c-2,.4-2.3,4.9-4.2,6,0-3.5,0-7,0-10.5,1.3.2,1.5-.3,2.1-1.1,1.7-2,3.3-5.8,4.9-8.1,3.8-5.9,8-11.6,11.9-17.4l-18.9-24.3c0-2,0-4,0-6l21.7,27c2.8-3.3,5.6-6.8,8.5-10,1.8-1.9,6.8-6,7.8-7.7s.5-1.1.5-2c.2-5.8-2.2-17.6-3.3-23.8s-1.3-7-2.1-10.4-4.3-19-5.2-19.6-1.1,0-1.5.2c-1.3.7-6,5.1-7.5,6.5-6,5.2-11.2,11.2-17,16.5-.6.6-1,1.3-2,1.2v-5.5c2.5-3.6,25.8-22.5,26-24.3s-2.5-7.6-3.1-9.4c-5.7-15.4-13.5-30.9-22.9-44.4,0-2.5,0-5,0-7.5l1.7.5c11-10.4,22.8-19.8,35.5-28s4.6-2.3,4.7-2.5c.7-1-2.2-6-2.9-7.3-6.2-12-14.6-22.8-22.7-33.6-1.8-1-13.6,8.3-16.4,8.9,0-1.7,0-3.3,0-5,3.5-1.8,8.5-4.2,11.7-6.6s.9-.4.8-1.2c0-1.6-10.6-11.5-12.5-13.3,0-1.8,0-3.7,0-5.5l16.3,16.4c1.8.6,6.5-3.3,8.7-3.4ZM473.8,246.5c-3-21.7-8.2-43.5-18.3-62.9-1.6-.5-17.7,11.4-20.1,13.3-3.9,3-7.9,6.2-11.6,9.4s-7.7,6.6-8.2,7.8-.4,1.3,0,2c10.5,16.4,19.1,34,25.2,52.5l32.9-22.1ZM474.4,251l-13.1,8.1c-2.3,1.5-17.9,12.7-18.3,13.7s4.4,17.4,5.1,20.3c2.7,11.5,4.5,23.2,5.8,34.9,5.5-4.2,10.9-8.5,17-11.9,3.9-21.5,5.2-43.4,3.5-65.1ZM455.4,365.5c1.1-.5,1.7-1.5,2.2-2.5,1.8-3.7,3.6-10,4.9-14.1,2.8-8.8,5.2-17.8,6.9-26.9-5.4,3.1-10.4,7-14.9,11.4.1,10.7,1.2,21.4.9,32.1ZM450.4,337.5c-5.3,4.9-10.6,10.2-14.5,16.3l12.8,22.2c3.5-3.4,2.1-8.7,2.2-13.3s0-6.1,0-9.5c0-5.3.3-10.6-.5-15.8ZM433.4,357.5c-.8-.2-1,.3-1.5.8-2.5,2.6-12.2,17.1-13.6,20.4s-.5,1.1-.4,1.9c3.5.3,26.4,2,27.4.4s-1.9-6-2.7-7.4c-2.8-5.5-6.5-10.5-9.3-16Z"/>
    <path class="st4" d="M121,120c-1.7.8-2.2,2.2,0,2.5,0,1.3,0,2.7,0,4l-5.4-.9c-1.1,2.6-8.1,8.4-8.1,10.6,3.6,10.9,8,21.7,13.5,31.8,0,3,0,6,0,9l-17.2-37c-.6.3-7.8,9.6-8.1,10.4-1,2.6-1.7,10.7-2.1,13.9-1.7,14.1-1.7,28.2-1.6,42.5l1.8,16.2,27.2-41.5c0,2.3,0,4.7,0,7-9.7,13.3-18.5,27.3-26.3,41.8,3.6,23.6,11.7,46.2,22.8,67.2l3.5-5.5c0,3,0,6,0,9-.8.2-.7,1.8,0,2,0,2.5,0,5,0,7.5l-3-3.8c-9.3,19.1-18.1,39.4-23.3,60.1s-2.1,6.7-1.4,8.6c8.4,10.9,17.1,22.3,27.7,31,0,1.8,0,3.7,0,5.5-1,0-1.4-.7-2-1.2-10.1-9.1-18.7-19.7-27.2-30.3-1.6,5.9-2,12-2.7,18-1.9-.9-2.5-3.5-3.5-5l2.8-18c-12.9-18.9-23.2-39.8-29.3-62l-4.5,15c-.8-2.8-1.3-5.6-2-8.5.8-3.9,4.4-11.1,4.4-14.7s-2.7-12.9-3.3-17.6c-3.3-24.2-1.8-49.3,2.9-73.2-.9.1-.9,1-1.1,1.6-2.4,5.4-5,12.2-6.4,17.9,1.4-9.3,3.4-18.5,6-27.5.9-.3,1-1.1,1.4-1.8,6.2-11.4,12-26.9,16.1-39.2,1.6-1.3,1.8-4,2.5-5.5,3.1-7,12.6-21.2,17.8-27s.7-1.2,1.7-1c-5,8.8-10,17.7-14.4,26.8s-4.4,9.4-6.1,14.2c1.4.3.9-.4,1.2-1,2.6-3.9,5.2-7.8,7.9-11.7s7.4-8.9,8.5-11.5,2.1-10.1,2.7-13.3.9-3.5.1-3.6c1.6-2.9,3.2-5.1,5.5-7.7s4.4-5.1,5.5-5.3c2.6-.3,7,2,9.1,1.4s4.5-5.4,6.4-6.4c0,2,0,4,0,6ZM111.5,124l-8.5-1.5,2.5,8.5c.4.3,6.3-6.7,6-7ZM97.5,141c1-1,4.7-4.9,4.9-5.9.4-1.5-1.7-5.4-1.9-7.1-.8.5-1,2.6-1.3,3.5-.8,3.1-1.5,6.3-1.7,9.5ZM90.3,157.5v.5c.3-.2.3-.3,0-.5ZM60,296.5c.5-.5,3.9-11.2,4.6-13.1,7.3-18.6,16.1-36.7,25.7-54.2-2.9-16.2-2.4-32.6-2.4-49l2-21.7c-3,3-5.6,7-8.1,10.6-11.1,16.2-16.9,25.8-21.1,45.4-5.2,23.9-7.4,57.4-1.7,81.3.1.6.1,1.6,1,.7ZM73.8,173.5v.5c.3-.2.3-.3,0-.5ZM57,214c.4-.7-.3-1.3-.5-1-.4.7.3,1.3.5,1ZM90,369.5c5.3-23.5,15-45.7,25.5-67.3-11.2-20.6-19.8-42.6-24-65.7-.4-.3-4.4,7.3-4.8,8-7.3,13.8-14.3,29.6-19.7,44.3s-5.4,13.7-5.5,17,4.4,16.5,6,21c4.5,12.5,13.2,31.8,21.4,42.1s0,.9,1.1.6Z"/>
    <path class="st6" d="M226,241.5c-1.3,0-2,1.6-2.7,2.6-3.5,4.7-6.9,9.5-10.2,14.3s-7.9,10.7-9.2,13.8-.5.9-.3,1.5,11.7,10.7,13.4,12.1c11.9,10.1,24.6,19.4,37.5,28.2.9,2.3,2.1,4.7,3,7-1.9-.3-3.2,3.2-4.1,4.7-12.4,20.9-22.7,44.1-31.4,66.8,18.9,8.5,38.4,15.8,58.7,20.5l6.8-17c.8,1.9,1.3,3.8,2,5.5l-4.5,12.5,10.5,2c.7,1.6,1,3.4,1.5,4.5l-13.4-2.5c-5.4,16.7-10.7,33.9-12.5,51.5,13.2.2,26.5-.6,39.6-2.6,2.8-.4,13.8-2.2,15.6-3.3s3-19.4,3.8-22c1.3,0,2.7,0,4,0-.4,6.6-2.5,13.1-3,19.8s0,.8.8.8c2.8-.2,9.1-2.5,12-3.5,11.3-3.8,22.3-9,32.7-14.8s2.6-1,2.5-2.3c4.3,0,8.7,0,13,0l-1,8.5c-1.4,1-2.9,3.1-5,3,.7-2.5,1.7-7.6,2-10.3s0-1-.7-.7c-2.3.7-8.5,5.3-11.2,6.8-14.3,7.7-29.7,14-45.4,17.8l-1.1,12.9c-1.5.4-2.7.6-4,1l.5-12.5c-18.2,4.1-36.9,6.1-55.7,5.5l-1.8,15.5c-1.3,0-2.7,0-4,0l1.5-15.5c-10.1-.9-20.1-1.9-30-3.8-11.2-2.1-22-5.5-33-8.2l-2.5,17c-1.1-.4-2.3-.6-3.5-1l1.9-17.9c-12.6-4.7-24.9-10.2-36.4-17.1v-1c2.3,0,4.7,0,7,0-.3,1.6.5.8,1,1,9.8,4.2,19.2,9.9,29.5,13,3.2-20.9,9.8-41.2,16.4-61.2l-.8-.8-29.7-16.6c0-1.7,0-3.3,0-5,1-.2,1.6.4,2.4.9,6.7,4,13,8.4,19.8,12.2s9.6,5.4,10.3,4.9c5.5-14.6,11.8-29,18.8-43s11.3-18.8,14.9-27.1.5-1,.4-1.6v-.6c-18.3-11.9-34.9-25.9-51.4-40-.8-.1-2.4,2.7-2.9,3.5-4,6.1-7.5,12.7-11.3,19h-1c0-2.3,0-4.7,0-7l.5-.5c1.3-2.8,11-16.6,11-18.3s-.3-.9-.7-1.3c-4.1-2.5-6.6-7.2-10.8-9.5,0-1.8,0-3.7,0-5.5,1.1-.2,1.5.4,2.3,1,3.6,3,7.4,8.6,11,11s.5.7,1.2.5l23-33.5c.3.8,1.9,3,2.5,4.5ZM278.9,416.5c-16.8-3.5-33.1-9.3-48.8-15.9-1.6-.7-8.7-4.5-9.7-3.9s-9.3,28-10.3,31.7c-.9,3.4-6.9,27.3-6.1,28.5,20,6.9,41.1,11.5,62.4,12,1.9-11.1,4.3-22.2,7.2-33.1.7-2.5,6.1-18.6,5.3-19.4Z"/>
    <path class="st8" d="M263.5,48.5l-1.5,1.5c17.3,1.4,34.4,4.9,51,9.8s11.9,4.5,13.5,4,5.6-3.7,8-4.3c1.5.5,4.5.2,5.5,2l-9,4.5c13.4,5,26.3,11.4,38.6,18.6s9.6,6.9,12.5,8,7.8-2.8,10.4-4.1c1.1.8,3.9,1.3,4,3-1.1,0-3.6,1.5-4.7,2.1s-1.6.2-1.3,1.4c-4.5,0-9,0-13.5,0-.5-1.8-3.2-3-4.7-4-14-9-29.7-16.1-45.2-22.3-.9-.3-1.6.3-2.4.7-11.9,5.7-29.5,19.9-39.9,28.6-3.1,2.6-6.5,5.2-9.4,7.9s-.5.3-.3,1c17.9,6.2,35,14.4,51.3,23.9l25.2-17.9c0,1.7,0,3.3,0,5l-21,15.3,21,14.2c0,1.7,0,3.3,0,5-6.2-4.1-12.2-8.8-18.5-12.7s-5-3.6-6.6-3.2-11.7,9.3-13.6,10.9c-15,12.8-30.6,27.6-43.7,42.2s-1,1.2-2,1.3c-.6-1.5-1.4-3-2-4.5,2.8-.2,4.3-3.5,6-5.3,16.3-17,34-32.5,52-47.7-16.6-9.1-33.7-17.5-51.7-23.5l-26.7,24.5c-.5-1.3-1-2.7-1.5-4l23-22.5-35.5-9c-.5-1.2-3.3-3.8-4.8-4-9.9,0-19.8,0-29.7,0-5.9-1.3-12.7-1.3-18.8-1s-4.1.4-5.7,1c-10.5,0-21.1-.4-31.5-.5l19-17.5c1.4-.4,2.8-1.2,3.5-2.5,6.3-3.4,12.7-6.7,19.5-9-6.1,3.5-13.7,9.5-19.2,14-5.5,4.4-10.7,9.2-15.8,14,17.7-3.2,35.7-4.2,53.6-2.6,14.9-13.3,30.2-26.5,47.3-36.9.1-.8-.7-.5-1.2-.5-10-.5-21.8,0-31.7,1.5v-.5c10-2.4,24.9-5.6,35-5.5s5.4,1.8,5-.5c2.8-.2,5.7,0,8.5,0ZM320.9,66.5c-21-7-42.9-11.6-65.1-12.9-17.6,11-34.2,23.7-49.3,37.9,21.6,1.7,42.7,6.9,63.2,13.5,7.5-5.5,14.4-11.9,21.8-17.7,9.5-7.4,19.4-14.1,29.4-20.8Z"/>
    <path class="st8" d="M351.4,193c0,1.8,0,3.7,0,5.5-6.8,6.4-13.5,13.1-19.7,20s-13.3,14.7-13.2,15.7l32.9,27.8c0,1.7,0,3.3,0,5l-35.8-29.4-20.2,24.4c-.6-1.4-1.4-2.9-2-4.5l18.5-23.2-39-28.8c-.9-2.3-2.1-4.7-3-7l44.7,32.5c1.2,0,9.4-10.3,11-12,7.4-8,15.7-17.5,23.7-24.8s1-1.3,2-1.2Z"/>
    <path class="st8" d="M351.4,289c-10.4,13.6-19.3,28.3-28,43-.7-1.7-1.8-3.6-2.5-5.5l30.5-44.5c0,2.3,0,4.7,0,7Z"/>
    <path class="st1" d="M202,182c-5.3,4.8-9.2,11.5-14,16.7s-1,1.2-2,1.3c0-2.2,0-4.3,0-6.5l14-16c.6,1.4,1.4,2.9,2,4.5Z"/>
    <path class="st4" d="M351.4,364.5c0,1.3,0,2.7,0,4-5.4-.9-10.4-3.7-15.5-5.5-.6-1.6-1.4-3.4-2-5l17.5,6.5Z"/>
    <path class="st5" d="M351.4,390c-1.3.8-1.8,3-2,4.5-.4,0-1.1.2-1.4,0s-1.3-3.7-1.6-4.4l5-9.5c0,3.2,0,6.3,0,9.5Z"/>
    <path class="st1" d="M140,441.5l-.5,7c-1.4-1-2.7-2-4-3v-4c1.5-.1,3,0,4.5,0Z"/>
    <path class="st1" d="M196,95c-8.2,0-16.3,0-24.5,0,1.6-.7,4-.9,5.7-1,6-.3,12.9-.3,18.8,1Z"/>
    <path class="st1" d="M191,155l-4-2c1.1-.4,1.6-.9,3-.3s.7,1.8,1,2.3Z"/>
    <path class="st0" d="M255,48.5c.4,2.3-4,.5-5,.5,1.7.4,3.5-.4,5-.5Z"/>
    <path class="st1" d="M215,54.5v.5c-.9.1-2.2,1-3.5.5,1.2-.3,2.3-.7,3.5-1Z"/>
    <path class="st1" d="M159,77h-.5c1-1.3,2.7-1.8,4-2.5-.7,1.3-2.1,2.1-3.5,2.5Z"/>
    <path class="st1" d="M187,300c-.2.3.4,1.3-1,1,0-.3,0-.7,0-1h1Z"/>
    <path class="st1" d="M170.5,441.5v1c-.5-.2-1.3.6-1-1,.3,0,.7,0,1,0Z"/>
    <path class="st1" d="M162.5,441.5v1c-.3-.2-1.3.4-1-1,.3,0,.7,0,1,0Z"/>
    <path class="st1" d="M130.8,441.5c.3.2.3.3,0,.5v-.5Z"/>
    <path class="st1" d="M186,293c0-.2,0-.3,0-.5h.5l-.5.5Z"/>
    <path class="st1" d="M426.4,403.5l1.8-1.5c.4,1.4-1.2,1.4-1.3,1.5h-.5Z"/>
  </g>
  <g>
    <path class="st3" d="M2004.9,405.6c-12.1-5.5-22.2-8.5-32.8-17.2-79.1-64.8-16-240,96.5-173.6l14.9,13.8v-101.6h39.3v275.3h-36l-1.6-25.4c-3.4-3.3-3.5,1.9-5.6,4.1-12.5,13.1-22.3,19.9-40.2,24.5h-34.4ZM2027.5,232.3c-59,6.3-61.3,119.7-13.9,139.1,86.1,35.1,96.7-148,13.9-139.1Z"/>
    <path class="st3" d="M1556.1,405.6c-17.5-6.1-33.6-11-42.4-28.9-7.6-15.4-7.8-42.3,1.7-56.9,17.5-26.7,59-27.5,86.9-32.7,14.2-2.7,34.2-3.4,34.2-21.7,0-48.3-82.2-42.7-80.4,4.1h-38.5c-5.3,0,2.3-22.1,3.8-25.7,17.3-41.5,73.2-50,112-37.8,66.6,21,37.2,106.8,44.2,159,2.7,9.2,11.5,8.7,19.3,6.1-1.4,8.4,1.9,22.5,0,30-.6,2.6-7.7,2.6-9.9,2.7-5.5.3-14.4.7-19.7,0-17.8-2.2-22.7-16.1-27-31.2-9.9,18-27.6,27.2-46.7,32.8h-37.7ZM1636.4,307.2c-18,6.6-37.7,7-56,12-10.4,2.8-26.3,8.5-28.8,20.4-9.6,47,61,50.7,78.6,11.4,1.5-3.4,6.2-17.2,6.2-20v-23.8Z"/>
    <path class="st3" d="M946.8,403.9c-36.7-4.7-55.9-38.6-44.7-73.4,12.9-39.8,67.4-37.8,100.7-45.1,21.1-4.6,30.6-9.8,22.7-33.2-9.8-28.9-63-25.8-74.7.9s-2.6,11-4.1,16.4h-39.3c2.1-59.6,64.1-77.9,114.3-64.4,70.5,19,38.8,105.2,46.9,157.9,3.4,14.4,19,8.1,20.6,9.7.9.9.3,25-.3,26.8-1.2,3.7-6.3,4-9.6,4.4-5.1.5-14.5.6-19.7,0-17-1.9-25.1-15.5-27-31.1-12.4,17.9-28.8,28-50,32.8h-26.2c-1.8-3-6.8-1.3-9.8-1.6ZM1028.7,307.2c-24.4,10.3-93.7,5-86.1,46,5.4,28.9,44.8,30.1,64.6,15.3,19.9-14.8,20.8-38.4,21.4-61.3Z"/>
    <path class="st3" d="M2229.3,403.9c-33.7-3.3-62.9-28.3-62.2-63.9h41c-2.2,46,87.2,46.3,85.1,4.3-1-20-23.1-23.7-38.9-26.8-42.1-8.2-89.1-6.6-82.1-66.7,8.2-69.5,156.5-67,152.2,10.5h-39.3c2-38.7-71.3-39.2-73.6-5.5-1.9,27.3,48.9,27,67.2,30.9,21.7,4.7,44,12.2,51.5,35.3,10.5,32.6-5.9,65.5-37.6,77l-22.1,6.5h-26.2c-3.3-3.3-10.1-1.2-14.7-1.6Z"/>
    <path class="st3" d="M1687.2,403.9v1.6h-19.7v-1.6c5.3.7,14.1.3,19.7,0Z"/>
    <path class="st3" d="M709.3,127l106.5,263.8V127h39.3v275.3h-77.8l-107.3-265.5v265.5h-38.5c-.2,0-2.5-2.3-2.5-2.5V127h80.3Z"/>
    <path class="st3" d="M1898.5,402.3h-39.3v-127c0-3.2-3-15-4.2-18.8-10-31.8-51-31.3-69.5-7.4-7.4,9.6-13.1,27.2-13.1,39.3v113.9h-39.3v-196.7h36l2.5,24.6c3.5,0,11.3-10.4,14.8-13.1,27.5-21.7,78.3-22,99.8,8.3,3.7,5.3,12.4,26,12.4,31.9v145Z"/>
    <polygon class="st3" points="1145 205.6 1196.6 389.2 1248.2 205.6 1290.8 205.6 1226.1 402.4 1164.8 402.1 1102.4 205.6 1145 205.6"/>
    <path class="st3" d="M1464.4,127v275.3h-38.5c-.2,0-2.5-2.3-2.5-2.5V127h41Z"/>
    <rect class="st3" x="1331.7" y="205.6" width="39.3" height="196.7"/>
    <rect class="st3" x="1330.1" y="127" width="42.6" height="41"/>
  </g>
</svg>